HIERARCHY
ROOT Hips
{
	OFFSET 0.00 0.00 0.00
	CHANNELS 6 Xposition Yposition Zposition Xrotation Yrotation Zrotation
	JOINT Spine
	{
		OFFSET 0.00000 7.06766 0.00000
		CHANNELS 3 Xrotation Yrotation Zrotation
		JOINT Head
		{
			OFFSET 0.00000 15.03989 0.00000
			CHANNELS 3 Xrotation Yrotation Zrotation
			End Site
			{
				OFFSET 0.00000 4.52755 0.00000
			}
		}
		JOINT LeftShoulder
		{
			OFFSET 0.00000 10.53037 0.00000
			CHANNELS 3 Xrotation Yrotation Zrotation
			JOINT LeftArm
			{
				OFFSET 7.02886 0.00000 0.00000
				CHANNELS 3 Xrotation Yrotation Zrotation
				JOINT LeftForeArm
				{
					OFFSET 10.79770 0.00000 0.00000
					CHANNELS 3 Yrotation Zrotation Xrotation
					JOINT LeftHand
					{
						OFFSET 7.90744 0.00000 0.00000
						CHANNELS 3 Xrotation Yrotation Zrotation
						JOINT LeftHandThumb1
						{
							OFFSET 0.00000 0.00000 0.00000
							CHANNELS 3 Xrotation Zrotation Yrotation
							End Site
							{
								OFFSET 0.00000 0.00000 3.93700
							}
						}
						End Site
						{
							OFFSET 3.93700 0.00000 0.00000
						}
					}
				}
			}
		}
		JOINT RightShoulder
		{
			OFFSET 0.00000 10.53037 0.00000
			CHANNELS 3 Xrotation Yrotation Zrotation
			JOINT RightArm
			{
				OFFSET -7.02886 0.00000 0.00000
				CHANNELS 3 Xrotation Yrotation Zrotation
				JOINT RightForeArm
				{
					OFFSET -10.79770 0.00000 0.00000
					CHANNELS 3 Yrotation Zrotation Xrotation
					JOINT RightHand
					{
						OFFSET -7.90744 0.00000 0.00000
						CHANNELS 3 Xrotation Yrotation Zrotation
						JOINT RightHandThumb1
						{
							OFFSET 0.00000 0.00000 0.00000
							CHANNELS 3 Xrotation Zrotation Yrotation
							End Site
							{
								OFFSET 0.00000 0.00000 3.93700
							}
						}
						End Site
						{
							OFFSET -3.93700 0.00000 0.00000
						}
					}
				}
			}
		}
	}
	JOINT LeftUpLeg
	{
		OFFSET 4.01300 0.00000 0.00000
		CHANNELS 3 Xrotation Yrotation Zrotation
		JOINT LeftLeg
		{
			OFFSET 0.00000 -16.89976 0.00000
			CHANNELS 3 Xrotation Yrotation Zrotation
			JOINT LeftFoot
			{
				OFFSET 0.00000 -17.38918 0.00000
				CHANNELS 3 Xrotation Yrotation Zrotation
				JOINT LeftToeBase
				{
					OFFSET 0.00000 -1.27456 4.75673
					CHANNELS 3 Xrotation Yrotation Zrotation
					End Site
					{
						OFFSET 0.00000 0.00000 2.95275
					}
				}
			}
		}
	}
	JOINT RightUpLeg
	{
		OFFSET -4.01300 0.00000 0.00000
		CHANNELS 3 Xrotation Yrotation Zrotation
		JOINT RightLeg
		{
			OFFSET 0.00000 -16.89976 0.00000
			CHANNELS 3 Xrotation Yrotation Zrotation
			JOINT RightFoot
			{
				OFFSET 0.00000 -17.38918 0.00000
				CHANNELS 3 Xrotation Yrotation Zrotation
				JOINT RightToeBase
				{
					OFFSET 0.00000 -1.27456 4.75673
					CHANNELS 3 Xrotation Yrotation Zrotation
					End Site
					{
						OFFSET 0.00000 0.00000 2.95275
					}
				}
			}
		}
	}
}
MOTION
Frames: 17
Frame Time: 0.008333
 18.9789 35.5621 -22.8923 179.1540 -2.3772 179.4465 -10.5297 0.1625 0.2785 6.6869 -1.5105 0.0959 -32.0215 3.6696 16.8978 -3.1689 -1.1644 -8.2241 3.6133 0.0000 3.7441 0.6409 8.3791 -4.3900 33.1476 -0.0000 26.2537 6.9210 -14.0505 -9.2386 -43.2758 -2.5926 9.2020 5.3370 -0.0000 31.9276 0.8146 -8.2688 5.6460 32.8623 0.0000 -24.3270 7.3664 10.2707 1.1721 -4.5079 0.0000 0.0000 -18.1011 28.8183 2.6900 24.5711 -0.0000 0.0000 7.1169 -8.5860 0.3875 -1.9991 0.0000 0.0000 -19.2259 -29.3005 -0.5519 22.9015 0.0000 -0.0000
 18.9788 35.5622 -22.8944 179.1523 -2.3832 179.4474 -10.5254 0.1620 0.2723 6.6792 -1.4968 0.0971 -32.0258 3.6598 16.8934 -3.1692 -1.1465 -8.2202 3.6071 0.0000 3.7257 0.6418 8.3795 -4.3954 33.1476 -0.0000 26.2537 6.8805 -14.0490 -9.2571 -43.2523 -2.6160 9.2045 5.3380 -0.0000 31.9178 0.8128 -8.2902 5.6197 32.8623 0.0000 -24.3270 7.3682 10.2579 1.1738 -4.5054 0.0000 0.0000 -18.1033 28.8101 2.7021 24.5645 0.0000 -0.0000 7.1245 -8.5948 0.3872 -2.0111 -0.0000 0.0000 -19.2246 -29.2927 -0.5480 22.9182 0.0000 -0.0000
 18.9786 35.5622 -22.8959 179.1501 -2.3826 179.4461 -10.5203 0.1552 0.2683 6.6672 -1.4726 0.1101 -32.0462 3.6540 16.8893 -3.0238 -1.1793 -8.2267 3.6623 -0.0000 3.5041 0.6207 8.3894 -4.2468 33.1476 -0.0000 26.2537 6.8852 -14.0399 -9.2603 -43.2561 -2.6319 9.2015 5.3261 -0.0000 31.9184 0.8211 -8.3226 5.6543 32.8623 0.0000 -24.3270 7.3690 10.2680 1.1694 -4.5187 0.0000 -0.0000 -18.1012 28.8421 2.6961 24.6003 0.0000 -0.0000 7.1211 -8.5841 0.3873 -2.0010 -0.0000 0.0000 -19.2268 -29.2986 -0.5404 22.8855 -0.0000 0.0000
 18.9775 35.5625 -22.8970 179.1436 -2.3890 179.4471 -10.5209 0.1418 0.2656 6.6582 -1.4677 0.1201 -32.0355 3.6651 16.8871 -3.0351 -1.1781 -8.2236 3.6705 -0.0000 3.4415 0.6155 8.3793 -4.2162 33.1476 -0.0000 26.2537 6.8914 -14.0350 -9.2654 -43.2632 -2.6414 9.2005 5.3155 -0.0000 31.8885 0.8202 -8.3224 5.6488 32.8623 0.0000 -24.3270 7.3670 10.2674 1.1663 -4.5242 0.0000 0.0000 -18.0996 28.8442 2.6756 24.5718 0.0000 -0.0000 7.1138 -8.5944 0.3851 -1.9936 -0.0000 0.0000 -19.2215 -29.2970 -0.5311 22.8303 0.0000 0.0000
 18.9778 35.5625 -22.8985 179.1380 -2.3933 179.4465 -10.5264 0.1479 0.2586 6.6671 -1.4737 0.1332 -32.0311 3.6326 16.8900 -3.0713 -1.1203 -8.2211 3.6296 -0.0000 3.5311 0.6303 8.3988 -4.3072 33.1476 -0.0000 26.2537 6.8913 -14.0291 -9.2601 -43.2631 -2.6622 9.1784 5.3088 -0.0000 31.8906 0.8215 -8.3113 5.6648 32.8623 0.0000 -24.3270 7.3667 10.2646 1.1717 -4.5223 -0.0000 0.0000 -18.0863 28.8026 2.6790 24.5318 0.0000 -0.0000 7.1135 -8.6000 0.3855 -2.0009 0.0000 0.0000 -19.1882 -29.3072 -0.4475 22.7718 -0.0000 0.0000
 18.9784 35.5622 -22.8996 179.1289 -2.4021 179.4484 -10.5258 0.1488 0.2429 6.6429 -1.4728 0.1609 -32.0430 3.6167 16.8962 -3.0454 -1.1132 -8.2235 3.6327 -0.0000 3.5101 0.6316 8.3980 -4.3164 33.1476 -0.0000 26.2537 6.8804 -14.0383 -9.2594 -43.2339 -2.6747 9.1799 5.3106 -0.0000 31.8581 0.8225 -8.3059 5.6754 32.8623 0.0000 -24.3270 7.3598 10.2550 1.1725 -4.5229 -0.0000 -0.0000 -18.0924 28.7989 2.6716 24.4561 -0.0000 0.0000 7.1106 -8.6118 0.3867 -2.0055 -0.0000 0.0000 -19.2229 -29.2895 -0.5343 22.9123 0.0000 -0.0000
 18.9779 35.5622 -22.9023 179.1198 -2.4089 179.4467 -10.5372 0.1401 0.2415 6.6451 -1.4720 0.1585 -32.0190 3.6186 16.8977 -3.1423 -1.0648 -8.2220 3.5891 0.0000 3.6132 0.6357 8.3936 -4.3468 33.1476 -0.0000 26.2537 6.8646 -14.0399 -9.2703 -43.2413 -2.6857 9.1826 5.3032 -0.0000 31.8946 0.8210 -8.2965 5.6716 32.8623 0.0000 -24.3270 7.3588 10.2593 1.1723 -4.5353 -0.0000 0.0000 -18.0896 28.8036 2.6615 24.5848 -0.0000 0.0000 7.1129 -8.6166 0.3910 -2.0185 0.0000 -0.0000 -19.2121 -29.3036 -0.5278 22.7923 -0.0000 -0.0000
 18.9776 35.5619 -22.9032 179.1052 -2.4105 179.4470 -10.5512 0.1362 0.2332 6.6396 -1.4797 0.1749 -32.0377 3.5919 16.9081 -3.1276 -1.0244 -8.2265 3.5752 0.0000 3.6295 0.6396 8.4016 -4.3695 33.1476 -0.0000 26.2537 6.8850 -14.0194 -9.2748 -43.2086 -2.7214 9.1703 5.3143 -0.0000 31.8437 0.8235 -8.2889 5.6938 32.8623 0.0000 -24.3270 7.3496 10.2688 1.1695 -4.5463 -0.0000 -0.0000 -18.0769 28.7968 2.6654 24.5837 0.0000 -0.0000 7.1015 -8.6243 0.3888 -2.0230 -0.0000 -0.0000 -19.2169 -29.2990 -0.5390 23.0286 -0.0000 -0.0000
 18.9775 35.5619 -22.9046 179.0939 -2.4176 179.4479 -10.5621 0.1297 0.2236 6.6314 -1.4918 0.1879 -32.0251 3.5962 16.9073 -3.1179 -1.0428 -8.2383 3.6064 -0.0000 3.5359 0.6253 8.4158 -4.2647 33.1476 -0.0000 26.2537 6.8689 -14.0142 -9.2856 -43.2036 -2.7486 9.1749 5.3249 -0.0000 31.8637 0.8236 -8.2918 5.6925 32.8623 0.0000 -24.3270 7.3421 10.2596 1.1686 -4.5474 -0.0000 -0.0000 -18.0942 28.7998 2.6433 24.6389 -0.0000 0.0000 7.0922 -8.6439 0.3904 -2.0205 -0.0000 -0.0000 -19.2189 -29.2564 -0.5237 22.8002 -0.0000 0.0000
 18.9773 35.5617 -22.9060 179.0790 -2.4232 179.4499 -10.5779 0.1343 0.2158 6.6353 -1.4902 0.1875 -32.0370 3.5651 16.9093 -3.1040 -1.0094 -8.2484 3.6069 -0.0000 3.5578 0.6360 8.4515 -4.3192 33.1476 -0.0000 26.2537 6.8633 -14.0177 -9.2903 -43.1981 -2.7715 9.1703 5.3323 -0.0000 31.8691 0.8242 -8.3008 5.6908 32.8623 0.0000 -24.3270 7.3298 10.2694 1.1658 -4.5530 0.0000 -0.0000 -18.0682 28.7941 2.6424 24.4672 -0.0000 0.0000 7.0829 -8.6459 0.3874 -2.0251 -0.0000 -0.0000 -19.2222 -29.2847 -0.5364 22.8509 0.0000 -0.0000
 18.9770 35.5615 -22.9076 179.0678 -2.4272 179.4498 -10.5898 0.1259 0.2076 6.6304 -1.4897 0.2015 -32.0096 3.5792 16.9166 -3.1529 -1.0116 -8.2562 3.6191 -0.0000 3.5745 0.6321 8.4686 -4.2842 33.1476 -0.0000 26.2537 6.8572 -14.0155 -9.2927 -43.1909 -2.7802 9.1743 5.3285 -0.0000 31.8904 0.8192 -8.2640 5.6812 32.8623 0.0000 -24.3270 7.3257 10.2569 1.1647 -4.5604 0.0000 0.0000 -18.0705 28.7926 2.6560 24.5798 -0.0000 0.0000 7.0789 -8.6516 0.3883 -2.0339 0.0000 0.0000 -19.2176 -29.2918 -0.5252 22.8827 -0.0000 -0.0000
 18.9768 35.5613 -22.9101 179.0596 -2.4428 179.4479 -10.5986 0.1055 0.2027 6.6205 -1.4942 0.2020 -31.9910 3.5877 16.9265 -3.1994 -0.9942 -8.2665 3.5999 0.0000 3.6339 0.6362 8.4980 -4.2971 33.1476 -0.0000 26.2537 6.8833 -14.0231 -9.2766 -43.2038 -2.7622 9.1677 5.3110 -0.0000 31.8806 0.8174 -8.2479 5.6799 32.8623 0.0000 -24.3270 7.3206 10.2498 1.1682 -4.5625 -0.0000 0.0000 -18.0728 28.7853 2.6606 24.5881 0.0000 -0.0000 7.0844 -8.6702 0.3926 -2.0468 0.0000 0.0000 -19.2122 -29.2819 -0.5434 22.8938 0.0000 0.0000
 18.9768 35.5610 -22.9112 179.0431 -2.4420 179.4441 -10.6161 0.1057 0.2013 6.6157 -1.4942 0.2176 -32.0198 3.5629 16.9272 -3.1897 -0.9609 -8.2597 3.5910 0.0000 3.6654 0.6381 8.4984 -4.3097 33.1476 -0.0000 26.2537 6.8779 -14.0257 -9.2752 -43.2007 -2.7699 9.1661 5.3170 -0.0000 31.8944 0.8173 -8.2460 5.6801 32.8623 0.0000 -24.3270 7.3094 10.2425 1.1702 -4.5671 -0.0000 -0.0000 -18.0719 28.7888 2.6616 24.5591 0.0000 0.0000 7.0725 -8.6640 0.3953 -2.0525 0.0000 0.0000 -19.1705 -29.3164 -0.4213 22.7572 -0.0000 -0.0000
 18.9768 35.5612 -22.9117 179.0283 -2.4530 179.4501 -10.6303 0.0991 0.1838 6.6160 -1.5069 0.2282 -32.0514 3.5221 16.9210 -3.1482 -0.9227 -8.2453 3.5897 0.0000 3.6614 0.6375 8.5045 -4.3026 33.1476 -0.0000 26.2537 6.8770 -14.0187 -9.2657 -43.1983 -2.7865 9.1525 5.3275 -0.0000 31.9060 0.8212 -8.2610 5.6969 32.8623 0.0000 -24.3270 7.2922 10.2369 1.1661 -4.5612 -0.0000 -0.0000 -18.0902 28.7961 2.6401 24.6295 -0.0000 0.0000 7.0626 -8.6829 0.3886 -2.0589 0.0000 0.0000 -19.1741 -29.2940 -0.4432 22.7555 0.0000 -0.0000
 18.9766 35.5610 -22.9139 179.0235 -2.4503 179.4499 -10.6344 0.0932 0.1780 6.6061 -1.5052 0.2360 -32.0387 3.5207 16.9217 -3.1781 -0.9049 -8.2379 3.5917 0.0000 3.6674 0.6276 8.5318 -4.2225 33.1476 -0.0000 26.2537 6.8900 -14.0227 -9.2516 -43.2078 -2.7692 9.1540 5.3093 -0.0000 31.9058 0.8177 -8.2521 5.6788 32.8623 0.0000 -24.3270 7.2957 10.2449 1.1663 -4.5704 0.0000 0.0000 -18.0854 28.7778 2.6690 24.6612 -0.0000 -0.0000 7.0682 -8.6656 0.3905 -2.0721 0.0000 0.0000 -19.2025 -29.2734 -0.5143 22.7906 0.0000 -0.0000
 18.9761 35.5606 -22.9165 179.0187 -2.4545 179.4481 -10.6421 0.0839 0.1770 6.6060 -1.4921 0.2339 -32.0334 3.5134 16.9208 -3.1877 -0.8855 -8.2314 3.5970 0.0000 3.6741 0.6280 8.5120 -4.2350 33.1476 -0.0000 26.2537 6.9052 -14.0204 -9.2554 -43.2357 -2.7822 9.1551 5.3050 -0.0000 31.9375 0.8174 -8.2443 5.6823 32.8623 0.0000 -24.3270 7.2993 10.2404 1.1652 -4.5800 0.0000 0.0000 -18.0711 28.7874 2.6520 24.6219 -0.0000 -0.0000 7.0732 -8.6681 0.3922 -2.0820 0.0000 0.0000 -19.2016 -29.2857 -0.4973 22.9077 0.0000 -0.0000
 18.9754 35.5607 -22.9172 178.9937 -2.4661 179.4466 -10.6666 0.0695 0.1755 6.5907 -1.5061 0.2307 -32.0377 3.5077 16.9176 -3.1803 -0.8712 -8.2256 3.6003 0.0000 3.6767 0.6321 8.5211 -4.2584 33.1476 -0.0000 26.2537 6.9875 -14.0935 -9.1885 -43.3155 -2.6455 9.1587 5.2140 -0.0000 31.9197 0.8115 -8.2181 5.6588 32.8623 0.0000 -24.3270 7.2693 10.2334 1.1613 -4.5794 -0.0000 -0.0000 -18.0800 28.8270 2.6470 24.5780 0.0000 -0.0000 7.0529 -8.6853 0.3932 -2.0853 0.0000 -0.0000 -19.1964 -29.3017 -0.5060 22.9083 0.0000 -0.0000
